<svg version="1" xmlns="http://www.w3.org/2000/svg" width="682.667" height="682.667" viewBox="0 0 512.000000 512.000000"><path d="M294 1.9c-7.1 2.3-12.7 5.3-16.9 9.1-1.8 1.6-3.6 3-3.9 3-.3 0-2.9-1.1-5.8-2.5-14.2-6.7-31.3-7.7-45.8-2.6-9.4 3.3-16.2 7.9-27 18.3-5.6 5.4-10.4 9.8-10.7 9.8-.3 0-4-.9-8.2-2-12.8-3.2-32.2-4.3-45.7-2.6-14.1 1.8-34.2 8.4-46.6 15.2-7.4 4-19.3 12.8-25.2 18.4-5.3 5.2-7.2 9.4-6.4 14 .7 3.8 170.6 173.7 174.9 174.9 5.4 1.5 9.6-.3 15.4-6.7 12.4-13.5 20.9-28 26.9-46.2 3.7-10.9 3.7-10.7 5.4-23 1.9-13 1.3-31.1-1.4-43.9-1.1-5.8-2.4-10.9-2.7-11.4-.3-.5 2.6-3.9 6.3-7.6C295 98.2 300.8 87 301.5 68.3c.4-11.1-1.7-20.5-7.1-31.1-4.2-8.2-4.1-8.3 2.8-12 5.3-2.7 13.4-2.2 19.3 1.2 6.9 4.1 7.3 5.8 1.7 8.3-5.2 2.4-8.2 6.5-8.2 11.1 0 2.3 36.2 103.7 58.6 163.9 3.6 9.8 3.9 11.3 2.5 12.9-1.2 1.2-4.1 10-4.7 13.9-1.3 9.2-.3 17.4 3.2 26.2l2.5 6.2-14.2 38.8c-7.8 21.3-15 41.3-16.1 44.3-7 19.6-26.1 71.7-26.8 72.9-.6 1.1-6 1.4-29.4 1.5l-28.6.1v-7.8c0-12.3-3.8-18.2-11.8-18-8.4.2-11.3 4.3-11.4 15.9-.1 4.7-.6 8.8-1.1 9.1-.5.3-15.6.6-33.6.6-21.2 0-33.4.4-35 1.1-1.4.6-12.2 14.1-24.9 31.1l-22.4 30-5.5.6c-4.3.5-6.2 1.3-8.3 3.5-4.4 4.4-4.4 10.8-.1 15.6l2.9 3.3h319.1l2.9-2.8c4.9-4.7 5.1-11.5.5-16.1-1.3-1.4-3.7-2.7-5.1-3.1l-2.7-.6v-26.2c0-37.2.8-36-24.8-36.3-9.3-.2-17-.4-17.2-.6-.1-.2 10.9-30.9 24.5-68.3l24.8-68 6.5-3.3c11.7-5.9 21.5-18.2 24.8-31.2 2.9-11.4.2-26.7-6.4-36.5-5.7-8.4-10.8-12.7-22.1-18.5-2.7-1.4-4.9-7-33.1-84.6-16.6-45.6-31-84.6-31.9-86.6-1-2-3.2-4.4-5.1-5.4-3.1-1.6-4.1-1.7-9.2-.6-5.2 1.1-5.9 1-7.1-.5C336.9 12 331 7 321.8 3.2 313.6 0 301.9-.6 294 1.9zm81.2 121.2c14.8 40.4 26.6 73.9 26.4 74.6-.3.6-2 1.4-3.8 1.8-1.8.4-3.9 1.2-4.6 1.8-.8.6-1.6.6-2.1.1-.8-.8-10.1-26-26.1-70.4-2.1-5.8-9.2-25.4-15.9-43.7C342.4 69 337 53.7 337 53.2c0-.9 8.9-4.1 10.5-3.8.5.2 13 33.3 27.7 73.7zm26.5 168.8c-1.1 4.3-48.1 132.7-48.8 133.5-.8.8-11.7 1.1-12.5.4-.2-.2 44-122.6 50-138.5.7-1.9 11.9 2.6 11.3 4.6z"/></svg>