<?xml version="1.0" standalone="no"?>
<!DOCTYPE svg PUBLIC "-//W3C//DTD SVG 20010904//EN"
 "http://www.w3.org/TR/2001/REC-SVG-20010904/DTD/svg10.dtd">
<svg version="1.0" xmlns="http://www.w3.org/2000/svg"
 width="544.000000pt" height="544.000000pt" viewBox="0 0 544.000000 544.000000"
 preserveAspectRatio="xMidYMid meet">
<metadata>
Created by potrace 1.11, written by Peter Selinger 2001-2013
</metadata>
<g transform="translate(0.000000,544.000000) scale(0.100000,-0.100000)"
fill="#000000" stroke="none">
<path d="M1355 5429 c-16 -6 -37 -13 -45 -16 -8 -4 -18 -7 -22 -7 -4 -1 -16
-9 -28 -18 -11 -10 -20 -15 -20 -12 0 3 -20 -15 -45 -40 -49 -51 -77 -99 -94
-163 -8 -30 -23 -51 -49 -70 -20 -15 -41 -34 -45 -40 -4 -7 -14 -13 -21 -13
-8 0 -16 -7 -20 -15 -3 -8 -12 -15 -20 -15 -8 0 -16 -4 -18 -8 -1 -4 -43 -38
-93 -75 -49 -37 -101 -75 -115 -86 -42 -32 -104 -80 -125 -95 -11 -9 -43 -33
-72 -56 -29 -22 -55 -40 -58 -40 -5 0 -19 -12 -75 -65 -27 -26 -31 -35 -27
-69 3 -28 13 -47 32 -62 27 -21 34 -22 352 -22 179 0 328 -3 331 -7 4 -4 7
-514 8 -1133 0 -620 4 -1152 8 -1182 4 -30 14 -82 22 -115 9 -33 17 -67 19
-75 2 -8 4 -16 5 -17 2 -2 3 -6 5 -10 1 -5 5 -21 10 -38 11 -39 96 -209 107
-213 4 -2 8 -8 8 -13 0 -11 34 -61 63 -94 10 -11 28 -33 40 -49 37 -48 98
-104 182 -167 44 -33 85 -63 91 -68 25 -20 182 -90 195 -87 3 0 13 -5 21 -12
9 -7 24 -15 34 -17 161 -38 208 -47 259 -50 33 -2 63 -4 67 -5 3 0 -3 -24 -13
-53 -21 -54 -129 -364 -133 -382 -2 -5 -6 -19 -10 -30 -5 -11 -12 -32 -18 -47
l-10 -28 -207 -1 c-113 -1 -213 -1 -222 0 -20 2 -107 -27 -127 -42 -100 -78
-124 -134 -127 -294 -2 -157 12 -198 72 -207 21 -3 595 -4 1275 -3 l1237 2 23
23 c21 21 23 32 25 152 3 164 -10 212 -76 281 -60 63 -119 86 -226 88 -44 1
-81 4 -84 6 -2 3 8 37 22 77 14 40 42 120 62 178 20 58 39 112 42 120 4 8 7
17 8 20 0 3 11 35 24 73 22 66 23 67 59 68 76 2 215 33 257 58 6 3 15 6 22 7
31 5 187 110 238 161 118 118 151 179 282 508 41 105 81 204 88 220 7 17 84
208 170 425 86 217 163 409 170 425 25 61 31 80 30 100 -2 41 -17 63 -53 78
-33 14 -176 16 -1345 15 -719 -1 -1310 2 -1314 5 -3 4 -7 469 -8 1034 -1 786
-4 1035 -13 1058 -47 115 -104 178 -200 223 l-57 27 -350 2 c-219 1 -361 -2
-380 -8z m1865 -4342 c0 -5 -69 -211 -77 -227 -3 -8 -7 -18 -8 -22 -2 -5 -4
-10 -5 -13 -1 -3 -4 -9 -5 -15 -1 -5 -4 -12 -5 -15 -1 -3 -4 -9 -5 -15 -1 -5
-4 -12 -5 -15 -1 -3 -3 -8 -5 -12 -1 -5 -4 -15 -8 -23 -3 -8 -18 -52 -33 -97
l-28 -83 -218 0 c-120 0 -218 2 -218 4 0 5 28 86 37 106 8 19 8 19 18 55 4 17
10 35 14 40 3 6 6 15 7 20 1 6 16 48 34 95 17 47 33 90 34 95 1 6 11 36 21 68
l19 57 218 0 c120 0 218 -1 218 -3z"/>
</g>
</svg>
