<?xml version="1.0" standalone="no"?>
<!DOCTYPE svg PUBLIC "-//W3C//DTD SVG 20010904//EN"
 "http://www.w3.org/TR/2001/REC-SVG-20010904/DTD/svg10.dtd">
<svg version="1.0" xmlns="http://www.w3.org/2000/svg"
 width="691.000000pt" height="691.000000pt" viewBox="0 0 691.000000 691.000000"
 preserveAspectRatio="xMidYMid meet">
<metadata>
Created by potrace 1.11, written by Peter Selinger 2001-2013
</metadata>
<g transform="translate(0.000000,691.000000) scale(0.100000,-0.100000)"
fill="#000000" stroke="none">
<path d="M4114 6430 c-94 -24 -131 -41 -213 -93 -163 -106 -314 -306 -394
-522 -62 -167 -76 -271 -83 -619 -3 -149 -10 -304 -15 -345 -11 -85 -42 -147
-92 -183 -28 -20 -43 -23 -127 -22 -108 1 -167 18 -313 91 -151 74 -266 159
-400 296 -106 107 -196 138 -323 111 -88 -18 -191 -66 -424 -197 -324 -181
-476 -252 -702 -328 -122 -40 -325 -93 -401 -104 -23 -4 -82 -13 -131 -20 -88
-14 -219 -25 -351 -29 -61 -2 -70 -5 -74 -21 -2 -11 -10 -24 -17 -28 -36 -20
79 -153 173 -200 86 -44 177 -65 293 -66 30 -1 50 -5 44 -9 -6 -4 -16 -21 -22
-39 -8 -25 -7 -38 6 -65 29 -57 112 -86 250 -87 l53 -1 -20 -29 c-29 -41 -26
-65 12 -104 63 -63 283 -108 534 -111 45 -1 81 -3 81 -6 -5 -79 91 -145 260
-179 121 -25 322 -21 430 9 39 10 41 2 4 -27 -63 -50 -102 -95 -102 -118 0
-31 42 -60 100 -70 25 -4 54 -9 65 -11 99 -20 265 -5 333 30 l27 14 1 -46 c2
-82 62 -102 150 -50 39 23 43 22 50 -18 9 -57 77 -176 170 -300 52 -70 101
-133 109 -141 8 -7 33 -41 57 -74 45 -65 78 -88 118 -83 21 2 34 -9 80 -72 73
-101 210 -241 243 -249 15 -4 33 -2 40 3 10 9 27 0 68 -34 59 -49 125 -84 150
-81 8 2 47 14 87 27 39 13 75 21 79 16 10 -10 11 -336 1 -431 -19 -186 -35
-257 -81 -353 -22 -47 -52 -73 -142 -122 -33 -17 -64 -36 -70 -40 -5 -4 -39
-23 -75 -41 -60 -30 -72 -33 -170 -34 -105 -2 -107 -3 -189 -46 -94 -49 -119
-76 -101 -109 15 -28 43 -37 136 -45 44 -4 95 -11 116 -17 l36 -11 -5 -48 c-6
-57 7 -79 46 -79 48 0 209 61 292 111 45 27 84 49 85 49 2 0 10 -16 18 -35 19
-44 51 -58 86 -38 14 8 52 51 85 96 33 45 86 108 117 139 65 63 68 74 44 180
-20 84 -29 199 -30 338 0 109 10 292 19 335 2 11 4 34 5 50 1 27 5 22 36 -40
54 -106 119 -198 159 -227 31 -22 42 -25 67 -17 17 4 37 17 44 28 13 19 15 18
46 -11 17 -16 44 -32 59 -35 42 -8 43 -56 1 -146 -31 -68 -72 -183 -122 -342
-64 -208 -150 -329 -275 -391 -59 -28 -63 -29 -227 -30 -147 -1 -170 -3 -188
-19 -29 -26 -25 -52 14 -91 39 -39 39 -46 -6 -111 -59 -88 -68 -158 -25 -188
37 -26 72 -17 204 51 182 95 240 114 333 109 91 -4 154 -26 197 -67 24 -24 37
-29 57 -24 31 8 34 18 41 141 8 116 30 235 79 407 44 156 167 522 200 593 53
117 170 271 227 300 32 17 37 12 40 -41 3 -53 15 -74 44 -74 24 0 37 13 102
103 21 29 67 59 188 126 183 101 196 115 176 189 -6 25 -10 45 -9 46 21 13
199 157 216 176 55 58 61 102 21 146 -20 22 -23 18 227 382 50 73 67 123 53
159 -5 13 -9 26 -9 28 0 1 41 33 90 70 132 99 180 163 180 242 0 40 -1 38 256
278 170 158 170 158 182 181 10 19 1 51 -20 65 -5 3 -2 25 7 48 13 38 20 79
27 151 4 55 -27 90 -64 69 -11 -6 -17 0 -26 24 -19 52 -63 72 -157 70 -86 -1
-183 -19 -484 -90 l-195 -46 -92 22 c-63 15 -122 22 -182 22 -100 -1 -82 -9
-297 141 -182 127 -263 152 -477 150 -90 -1 -168 2 -184 8 -16 6 -49 31 -75
55 -77 72 -118 88 -243 94 l-109 6 -14 40 c-46 130 -69 266 -67 410 1 127 19
269 33 263 3 -2 36 -18 72 -35 53 -26 154 -51 212 -53 4 0 22 -16 40 -34 24
-27 54 -42 126 -66 96 -31 125 -49 243 -154 101 -90 232 -139 323 -122 28 6
39 15 52 41 24 50 9 90 -111 295 -305 519 -320 547 -330 633 -16 130 -92 218
-289 337 -168 100 -329 131 -483 90z"/>
</g>
</svg>
